<svg width="314" height="95" viewBox="0 0 314 95" fill="none" xmlns="http://www.w3.org/2000/svg">
<path d="M2 92C2 92 10.0765 64.5736 15.2516 47M15.2516 47C20.4267 29.4264 28.5032 2 28.5032 2C28.5032 2 60.6455 92 55.8523 92C51.0592 92 39.5688 38.4145 15.2516 47Z" stroke="#F16F25" stroke-width="4" stroke-linecap="round" stroke-linejoin="round"/>
<path d="M92.5057 2V92M92.5057 2H62.9011M92.5057 2H122.674" stroke="#F16F25" stroke-width="4" stroke-linecap="round"/>
<path d="M158.482 2V92M158.482 2H128.877M158.482 2H188.65" stroke="#F16F25" stroke-width="4" stroke-linecap="round"/>
<path d="M229.495 2C183.628 2 185.243 92 227.234 92M227.88 92C273.747 92 272.132 2.00001 230.141 2.00001" stroke="#F16F25" stroke-width="4" stroke-linecap="round"/>
<path d="M274.342 91.9815C274.342 91.9815 271.527 2.00001 274.342 2C277.157 1.99999 306.589 93.4913 311.374 91.9815C312.782 92.5854 311.374 2.30195 311.374 2.30195" stroke="#F16F25" stroke-width="4" stroke-linecap="round"/>
</svg>
