<svg xmlns="http://www.w3.org/2000/svg" xmlns:xlink="http://www.w3.org/1999/xlink" viewBox="0,0,256,256" width="512px" height="512px" fill-rule="nonzero">
    <defs>
        <linearGradient x1="160.458" y1="366.357" x2="420.657" y2="106.158" gradientUnits="userSpaceOnUse" id="color-1">
            <stop offset="0" stop-color="#fffcff" stop-opacity="0"></stop>
            <stop offset="1" stop-color="#ffdaec"></stop>
        </linearGradient>
        <linearGradient x1="408.732" y1="450.553" x2="408.732" y2="58.454" gradientUnits="userSpaceOnUse" id="color-2">
            <stop offset="0" stop-color="#6582fd" stop-opacity="0.6"></stop>
            <stop offset="0.05" stop-color="#839afd" stop-opacity="0.57"></stop>
            <stop offset="0.116" stop-color="#a4b5fe" stop-opacity="0.53"></stop>
            <stop offset="0.191" stop-color="#c1ccfe" stop-opacity="0.486"></stop>
            <stop offset="0.274" stop-color="#d8dffe" stop-opacity="0.436"></stop>
            <stop offset="0.369" stop-color="#e9edff" stop-opacity="0.379"></stop>
            <stop offset="0.483" stop-color="#f6f8ff" stop-opacity="0.31"></stop>
            <stop offset="0.637" stop-color="#fdfdff" stop-opacity="0.218"></stop>
            <stop offset="1" stop-color="#ffffff" stop-opacity="0"></stop>
        </linearGradient>
        <linearGradient x1="256" y1="450.553" x2="256" y2="58.454" gradientUnits="userSpaceOnUse" id="color-3">
            <stop offset="0" stop-color="#6582fd" stop-opacity="0.6"></stop>
            <stop offset="0.05" stop-color="#839afd" stop-opacity="0.57"></stop>
            <stop offset="0.116" stop-color="#a4b5fe" stop-opacity="0.53"></stop>
            <stop offset="0.191" stop-color="#c1ccfe" stop-opacity="0.486"></stop>
            <stop offset="0.274" stop-color="#d8dffe" stop-opacity="0.436"></stop>
            <stop offset="0.369" stop-color="#e9edff" stop-opacity="0.379"></stop>
            <stop offset="0.483" stop-color="#f6f8ff" stop-opacity="0.31"></stop>
            <stop offset="0.637" stop-color="#fdfdff" stop-opacity="0.218"></stop>
            <stop offset="1" stop-color="#ffffff" stop-opacity="0"></stop>
        </linearGradient>
    </defs>
    <g
        fill="#1693b3"
        fill-rule="nonzero"
        stroke="none"
        stroke-width="1"
        stroke-linecap="butt"
        stroke-linejoin="miter"
        stroke-miterlimit="10"
        stroke-dasharray=""
        stroke-dashoffset="0"
        font-family="none"
        font-weight="none"
        font-size="none"
        text-anchor="none"
        style="mix-blend-mode: normal"
    >
        <path d="M128,256c-70.69245,0 -128,-57.30755 -128,-128v0c0,-70.69245 57.30755,-128 128,-128v0c70.69245,0 128,57.30755 128,128v0c0,70.69245 -57.30755,128 -128,128z" id="shape"></path>
    </g>
    <g
        fill="none"
        fill-rule="nonzero"
        stroke="none"
        stroke-width="1"
        stroke-linecap="butt"
        stroke-linejoin="miter"
        stroke-miterlimit="10"
        stroke-dasharray=""
        stroke-dashoffset="0"
        font-family="none"
        font-weight="none"
        font-size="none"
        text-anchor="none"
        style="mix-blend-mode: normal"
    >
        <g transform="scale(0.5,0.5)">
            <path
                d="M510.8,395.5c-8.9,-46.4 -90.9,-48 -91.5,-91.8c-0.4,-34.9 37.6,-60.4 46.5,-95.2c15.8,-61.7 -34.9,-110.6 -94.2,-91.3c-98.7,32.2 -137.1,50.9 -192.5,-57.7c-23,-45.2 -124.1,-55.7 -114.7,10.4c14.4,102.1 -43,46 -61.8,110.5c-19.8,67.8 81.5,19.4 142.4,127.5c59.2,105.1 148.4,202.7 282.5,177c42.9,-8.3 92.8,-40 83.3,-89.4z"
                fill="url(#color-1)"
            ></path>
            <path
                d="M100.8,401.2c-7.2,0 -13,-5.8 -13,-13c0,-7.2 5.8,-13 13,-13c7.2,0 13,5.8 13,13c0,7.2 -5.8,13 -13,13zM100.8,385.2c-1.7,0 -3,1.4 -3,3c0,1.6 1.4,3 3,3c1.6,0 3,-1.4 3,-3c0,-1.7 -1.3,-3 -3,-3z"
                fill="#ff5ba7"
            ></path>
            <path
                d="M463.9,247.2c-7.2,0 -13,-5.8 -13,-13c0,-7.2 5.8,-13 13,-13c7.2,0 13,5.8 13,13c0,7.2 -5.8,13 -13,13zM463.9,231.2c-1.7,0 -3,1.4 -3,3c0,1.6 1.4,3 3,3c1.7,0 3,-1.4 3,-3c0,-1.6 -1.3,-3 -3,-3z"
                fill="#01eba4"
            ></path>
            <path
                d="M395.3,96.2c-2.8,0 -5,-2.2 -5,-5c0,-3 -2.5,-5.5 -5.5,-5.5c-2.8,0 -5,-2.2 -5,-5c0,-2.8 2.2,-5 5,-5c3,0 5.5,-2.5 5.5,-5.5c0,-2.8 2.2,-5 5,-5c2.8,0 5,2.2 5,5c0,3 2.5,5.5 5.5,5.5c2.8,0 5,2.2 5,5c0,2.8 -2.2,5 -5,5c-3,0 -5.5,2.5 -5.5,5.5c0,2.8 -2.3,5 -5,5z"
                fill="#8298fd"
            ></path>
            <path
                d="M203.4,443.4c-2.8,0 -5,-2.2 -5,-5c0,-3 -2.5,-5.5 -5.5,-5.5c-2.8,0 -5,-2.2 -5,-5c0,-2.8 2.2,-5 5,-5c3,0 5.5,-2.5 5.5,-5.5c0,-2.8 2.2,-5 5,-5c2.8,0 5,2.2 5,5c0,3 2.5,5.5 5.5,5.5c2.8,0 5,2.2 5,5c0,2.8 -2.2,5 -5,5c-3,0 -5.5,2.5 -5.5,5.5c0,2.8 -2.2,5 -5,5z"
                fill="#8298fd"
            ></path>
            <path
                d="M74.3,120.7c-2.8,0 -5,-2.2 -5,-5c0,-3 -2.5,-5.5 -5.5,-5.5c-2.8,0 -5,-2.2 -5,-5c0,-2.8 2.2,-5 5,-5c3,0 5.5,-2.5 5.5,-5.5c0,-2.8 2.2,-5 5,-5c2.8,0 5,2.2 5,5c0,3 2.5,5.5 5.5,5.5c2.8,0 5,2.2 5,5c0,2.8 -2.2,5 -5,5c-3,0 -5.5,2.5 -5.5,5.5c0,2.7 -2.3,5 -5,5z"
                fill="#01eba4"
            ></path>
            <circle cx="348.1" cy="327.2" r="115.7" fill="#96ffd1"></circle>
            <path
                d="M375.8,319.7c-0.5,-1.6 -1.8,-2.9 -3.4,-3.4l-38.4,-11.1c-1.4,-0.4 -2.9,-0.2 -4.2,0.6l-27.1,18.1c-1.4,0.9 -2.2,2.5 -2.2,4.2v25.2c0,2 1.2,3.8 3,4.6l26.8,11.8c2.4,1.1 3.9,3.6 3.5,6.3l-6.1,46.2c-0.1,1.1 0,2.3 0.6,3.3c1,1.6 2.6,2.5 4.3,2.5c0.6,0 1.2,-0.1 1.7,-0.3l22.4,-8.4c1.1,-0.4 2,-1.2 2.6,-2.2l28.8,-50.5c0.7,-1.2 0.8,-2.6 0.4,-3.9z"
                fill="#ffffff"
            ></path>
            <path
                d="M258.2,300.1l40,14.7c0.6,0.2 1.1,0.3 1.7,0.3c1.5,0 3,-0.7 4,-1.9l43.4,-56.4c1,-1.3 3,-1.6 4.3,-0.5l25.8,21.1c1.5,1.3 3.7,1.5 5.4,0.6l51.1,-26.3c0.4,-0.2 0.8,-0.5 1.1,-0.8c-21.2,-24.1 -52.3,-39.3 -86.9,-39.3c-44.9,0 -83.8,25.5 -103,62.9l10.2,23c0.6,1.1 1.6,2.1 2.9,2.6z"
                fill="#01eba4"
            ></path>
            <path
                d="M287.8,377.9c0.2,-0.8 0.3,-1.7 0.1,-2.5l-7.9,-33.9c-0.4,-1.7 -1.6,-3 -3.2,-3.6l-42.7,-15.4c-0.5,-0.2 -1,-0.3 -1.6,-0.3c-0.1,1.7 -0.1,3.3 -0.1,5c0,36.6 17,69.3 43.6,90.5c0.4,-0.5 0.8,-1.1 1,-1.8z"
                fill="#01eba4"
            ></path>
            <path
                d="M463.9,327.2c0,-16.7 -3.5,-32.5 -9.9,-46.9c-0.2,-0.1 -0.3,-0.1 -0.4,-0.2l-36.9,18.6c-0.9,0.5 -1.7,1.2 -2.2,2.1l-18.6,35c-0.6,1.1 -0.7,2.4 -0.4,3.7l10.1,36.6c0.1,0.4 0.3,0.8 0.5,1.2l19.8,33.9c0.2,0.3 0.4,0.7 0.7,0.9c23,-21 37.3,-51.3 37.3,-84.9z"
                fill="#01eba4"
            ></path>
            <path d="M327,213.4c-53.8,10 -94.6,57.1 -94.6,113.8c0,1.5 0,2.9 0.1,4.4c53.8,-12.7 93.9,-60.7 94.5,-118.2z" fill="#2626bc" opacity="0.1"></path>
            <circle cx="204.2" cy="187.1" r="122.8" fill="#8298fd"></circle>
            <path d="M246.3,255.5c-2.7,-0.7 -5.4,0.9 -6.1,3.6l-11.8,46.1c-0.2,0.8 -0.2,1.6 0,2.3c3.5,-0.7 7,-1.6 10.4,-2.6l11.1,-43.3c0.7,-2.7 -0.9,-5.4 -3.6,-6.1z" fill="#9eaffd"></path>
            <path d="M261.8,271.4c-2.7,-0.7 -5.4,0.9 -6.1,3.6l-5.8,22.9c-0.3,1.1 -0.2,2.2 0.3,3.2c3.6,-1.4 7.1,-3.1 10.5,-4.8l4.8,-18.8c0.6,-2.7 -1,-5.4 -3.7,-6.1z" fill="#9eaffd"></path>
            <path
                d="M102.1,255.4c2.7,4.1 5.7,8 8.9,11.8c19.7,-27.7 50.5,-61.7 94.3,-99.7c27.4,-23.7 53.9,-41.5 75.2,-51.5c6.7,-3.1 12.8,-5.5 18.3,-7c-5.5,-6.6 -11.6,-12.6 -18.4,-18c-21.4,10 -47.8,27.7 -75.2,51.4c-50.9,44.4 -84.3,83.3 -103.1,113z"
                fill="#2626bc"
                opacity="0.1"
            ></path>
            <path
                d="M448.1,94.6c-2.2,-2.4 -4.6,-4.7 -7,-6.7c-2.4,-1.9 -5.8,0.4 -4.8,3.3c7.7,21.7 2.8,46.9 -14.6,64.2c-17.4,17.4 -42.5,22.2 -64.3,14.6c-2.9,-1 -5.2,2.4 -3.3,4.8c1.3,1.6 2.8,3.2 4.3,4.7c24.8,24.8 65.4,24.1 89.3,-2.1c21.4,-23.3 21.5,-59.4 0.4,-82.8z"
                fill="#ff7eb7"
            ></path>
            <path d="M396.6,187.8c9.3,-1.1 17,-8.2 18.9,-17.4c0.7,-3.3 0.6,-6.4 -0.1,-9.4c-12.3,9.3 -27.3,13.4 -42,12.3c3.3,9.3 12.6,15.7 23.2,14.5z" fill="#ffa7ce"></path>
            <path d="M461.5,137.3c-12.1,0 -21.9,9.8 -21.9,21.9c0,7.2 3.5,13.6 8.8,17.6c10,-11.2 15.1,-25.2 15.5,-39.3c-0.8,-0.2 -1.6,-0.2 -2.4,-0.2z" fill="#ffa7ce"></path>
            <path d="M204.2,64.3c-40.8,0 -77,19.9 -99.3,50.6c6.6,1.4 13.4,2.2 20.5,2.2c37.6,0 70.3,-21.3 86.6,-52.5c-2.6,-0.2 -5.2,-0.3 -7.8,-0.3z" fill="#9eaffd"></path>
            <path d="M326.5,198.4c-5.1,-2.8 -11,-4.4 -17.3,-4.4c-19.8,0 -35.8,16 -35.8,35.8c0,16.5 11.1,30.3 26.3,34.5c14.8,-18.3 24.5,-41 26.8,-65.9z" fill="#9eaffd"></path>
            <g fill="#9eaffd">
                <path
                    d="M305,117c-62.7,21.8 -139.3,80.8 -187.8,156.8c5.2,5.2 10.8,9.9 16.9,14.1c15.2,-17.6 32.4,-33.9 46,-33.9c16.6,0 12.3,28.9 1.3,53.8c7.4,1.4 15,2.1 22.8,2.1c0.1,0 0.1,0 0.2,0c19.2,-78.6 65.3,-155.3 105.4,-185.5c-1.5,-2.5 -3.1,-5 -4.8,-7.4z"
                ></path>
            </g>
            <g fill="#8298fd"><circle cx="200.2" cy="221.4" r="22.9"></circle></g>
            <g fill="#8298fd"><circle cx="243.5" cy="171.3" r="14.2"></circle></g>
            <g fill="#96ffd1">
                <path
                    d="M326,171.8c-1.7,-13.4 -5.5,-26.1 -11.1,-37.8v0c13,-22.7 17.2,-40.2 9.9,-47.9c-6.9,-7.2 -23,-5 -44.2,4.9c-21.4,10 -47.9,27.7 -75.2,51.5c-51.1,44.3 -84.5,83.3 -103.3,113c-18.9,29.8 -23.1,50.3 -16.1,57.7c8.9,9.4 32.9,2.5 63.6,-15.9c11.7,5.8 24.5,9.8 37.9,11.6c-56.9,36.8 -107.3,48.6 -129,27.5c-23.8,-23.1 -1.7,-70 16,-100c3.4,-5.7 7,-11.5 11,-17.4c16.9,-25 39.1,-51.3 65.5,-76.4c31.9,-30.3 65.2,-54.5 95.5,-70.6c46,-24.4 85.2,-30.5 102.8,-12c19,19.7 8.3,63 -23.3,111.8z"
                ></path>
            </g>
            <g>
                <path
                    d="M354.3,174.8c1.3,1.6 2.8,3.2 4.3,4.7c24.8,24.8 65.4,24.1 89.3,-2.1c21.2,-23.3 21.4,-59.4 0.3,-82.8c-2.2,-2.4 -4.6,-4.7 -7,-6.7c-2.4,-1.9 -5.8,0.4 -4.8,3.3c7.7,21.7 2.8,46.9 -14.6,64.2c-17.4,17.4 -42.5,22.2 -64.3,14.6c-2.8,-1 -5.1,2.4 -3.2,4.8z"
                    fill="url(#color-2)"
                ></path>
                <path
                    d="M348.1,211.5c-8.3,0 -16.3,0.9 -24.1,2.5c1.9,-8.7 3,-17.7 3,-26.9c0,-5.2 -0.3,-10.3 -1,-15.3c31.6,-48.8 42.2,-92.1 23.3,-111.9c-17.6,-18.5 -56.8,-12.4 -102.8,12v0c-13.2,-4.9 -27.5,-7.5 -42.4,-7.5c-67.8,0 -122.8,55 -122.8,122.8c0,11 1.4,21.6 4.1,31.7v0c-4,5.9 -7.7,11.7 -11,17.4c-17.7,30 -39.8,76.9 -16,100c21.7,21.1 72.2,9.4 129.1,-27.5v0c5.4,0.7 11,1.1 16.6,1.1c10.4,0 20.5,-1.3 30.1,-3.7c-1.3,6.8 -1.9,13.9 -1.9,21c0,63.9 51.8,115.7 115.7,115.7c63.9,0 115.7,-51.8 115.7,-115.7c0,-63.9 -51.6,-115.7 -115.6,-115.7zM149.6,297.2c-30.7,18.4 -54.7,25.3 -63.6,15.9c-7,-7.4 -2.8,-27.9 16.1,-57.7v0c11.9,17.7 28.3,32.2 47.5,41.8zM314.9,134c-8.1,-16.8 -19.9,-31.5 -34.3,-43v0c21.2,-9.9 37.3,-12.1 44.2,-4.9c7.4,7.7 3.1,25.2 -9.9,47.9z"
                    fill="url(#color-3)"
                ></path>
            </g>
        </g>
    </g>
</svg>
